<?xml version="1.0" standalone="no"?>
<!DOCTYPE svg PUBLIC "-//W3C//DTD SVG 20010904//EN"
 "http://www.w3.org/TR/2001/REC-SVG-20010904/DTD/svg10.dtd">
<svg version="1.0" xmlns="http://www.w3.org/2000/svg"
 width="500.000000pt" height="500.000000pt" viewBox="0 0 500.000000 500.000000"
 preserveAspectRatio="xMidYMid meet">
<metadata>
Created by potrace 1.14, written by Peter Selinger 2001-2017
</metadata>
<g transform="translate(0.000000,500.000000) scale(0.100000,-0.100000)"
fill="#000000" stroke="none">
<path d="M2165 4298 c-9 -28 -24 -152 -19 -160 3 -4 16 -8 29 -8 19 0 33 13
60 55 33 52 37 55 75 55 l40 0 0 -261 c0 -248 -1 -262 -21 -290 -11 -16 -17
-33 -14 -39 4 -6 56 -10 126 -10 132 0 136 2 99 62 -19 31 -20 51 -20 286 l0
252 39 0 c40 0 51 -9 104 -84 20 -29 54 -34 64 -11 3 9 -1 48 -8 88 l-14 72
-268 3 c-209 2 -268 0 -272 -10z"/>
<path d="M2814 4297 c-3 -8 2 -27 12 -42 16 -25 16 -39 0 -273 -17 -230 -20
-250 -43 -286 -15 -23 -21 -42 -16 -47 10 -10 470 -49 489 -42 12 4 44 116 44
153 0 37 -41 24 -91 -30 l-46 -50 -69 0 c-98 0 -114 13 -114 94 0 35 3 84 6
110 l7 46 41 0 c63 0 84 -9 106 -47 13 -22 26 -33 38 -31 14 3 18 20 25 97 9
117 1 129 -51 78 -31 -31 -45 -37 -79 -37 -67 0 -73 6 -72 64 1 81 14 157 30
167 15 11 114 2 140 -12 9 -5 33 -31 53 -59 34 -47 66 -64 80 -41 9 15 -6 142
-19 155 -8 7 -79 17 -186 25 -96 6 -198 15 -226 18 -42 5 -54 3 -59 -10z"/>
<path d="M1706 4270 c-56 -22 -129 -87 -156 -141 -11 -20 -24 -65 -30 -101
-22 -122 21 -249 112 -334 66 -61 123 -85 204 -85 163 0 274 93 274 229 0 43
-3 52 -18 52 -10 0 -32 -20 -50 -46 -77 -109 -203 -107 -299 5 -59 69 -91 244
-56 311 10 19 33 42 51 52 47 23 88 9 132 -44 76 -93 95 -108 138 -108 32 0
45 6 61 26 12 15 21 35 21 46 0 53 -61 115 -139 143 -62 21 -184 19 -245 -5z"/>
<path d="M3577 4206 c-97 -35 -159 -103 -197 -217 -56 -164 25 -366 172 -429
104 -45 215 -35 293 25 33 25 85 114 85 146 0 32 -31 30 -75 -6 -87 -72 -161
-70 -236 5 -55 55 -79 120 -79 214 0 86 16 135 60 178 69 69 129 44 184 -76
39 -85 63 -108 112 -109 45 -1 74 30 74 80 0 79 -75 153 -190 187 -65 19 -151
20 -203 2z"/>
<path d="M1097 4196 c-92 -25 -183 -112 -209 -199 -19 -65 -14 -183 11 -247
29 -76 107 -161 179 -197 48 -23 69 -28 132 -27 160 1 270 97 272 235 0 83
-26 93 -66 25 -70 -120 -184 -136 -286 -40 -85 80 -136 245 -97 320 27 53 54
68 114 65 13 -1 47 -26 80 -60 66 -67 89 -81 132 -81 42 0 71 31 71 76 0 29
-8 44 -38 74 -63 64 -183 86 -295 56z"/>
<path d="M4105 4088 c6 -45 -2 -86 -55 -283 -54 -203 -64 -234 -92 -262 -20
-21 -28 -37 -22 -42 5 -5 57 -22 116 -38 115 -30 141 -26 119 15 -6 11 -11 33
-11 48 0 33 39 185 51 198 8 9 215 -40 232 -54 5 -4 -4 -52 -18 -106 -21 -75
-34 -107 -58 -132 -19 -19 -27 -35 -21 -41 5 -5 58 -21 117 -36 122 -32 136
-28 113 26 -14 34 -12 45 44 258 74 280 66 256 103 291 20 19 28 33 22 39 -11
10 -193 61 -220 61 -14 0 -16 -7 -10 -53 5 -40 1 -72 -18 -140 -14 -49 -26
-90 -28 -92 -4 -3 -231 54 -238 61 -2 2 9 48 24 103 21 78 33 105 57 126 16
14 28 31 25 38 -3 11 -182 65 -220 66 -16 1 -18 -5 -12 -51z"/>
<path d="M463 4052 c-68 -22 -136 -71 -166 -119 -40 -63 -50 -108 -45 -202 5
-103 36 -176 105 -246 67 -67 139 -98 229 -98 65 0 83 4 142 34 51 26 75 45
99 82 36 54 51 135 34 180 -16 40 -41 31 -68 -25 -79 -166 -282 -130 -374 67
-56 119 -47 217 24 251 46 22 74 14 139 -42 72 -62 103 -77 144 -69 60 11 80
64 44 122 -43 72 -193 104 -307 65z"/>
<path d="M2361 3170 c-58 -12 -146 -66 -182 -111 -41 -52 -86 -152 -94 -209
-8 -56 -6 -54 -101 -105 l-71 -39 -31 22 c-42 31 -148 69 -221 81 -204 33
-400 -84 -505 -301 -97 -200 -123 -417 -85 -723 11 -88 10 -93 -20 -195 -98
-326 -95 -447 19 -618 l48 -72 -23 -28 c-83 -99 -105 -175 -64 -225 45 -58
192 -59 391 -5 80 22 128 30 163 27 28 -2 100 -3 160 -3 134 2 240 32 334 95
56 37 81 63 139 138 l18 23 114 -36 c339 -108 698 -131 1016 -66 411 85 722
319 808 609 21 72 21 108 -1 115 -10 4 -29 31 -42 62 -26 60 -68 96 -102 87
-11 -3 -29 -18 -42 -34 l-22 -28 -65 18 -65 18 75 37 c41 21 99 55 128 77 42
32 56 38 71 29 11 -5 34 -10 50 -10 63 0 88 99 60 230 -9 43 -8 54 5 68 57 64
92 227 66 308 -31 94 -122 192 -223 240 -102 47 -175 64 -312 71 -118 5 -284
-12 -350 -37 -19 -7 -40 -6 -77 6 -40 14 -72 16 -163 10 l-113 -6 -12 31 c-56
134 -237 327 -369 394 -101 51 -225 73 -310 55z m1807 -1242 c-4 -78 -20 -82
-56 -17 l-26 46 35 31 c43 38 51 27 47 -60z m-120 -32 c4 -19 -30 -61 -62 -78
-14 -7 -21 -6 -27 3 -17 27 -8 49 28 74 41 27 56 28 61 1z m-149 -96 c10 -30
9 -31 -45 -58 -47 -23 -56 -24 -64 -12 -19 30 -9 46 43 72 28 15 53 27 54 27
0 1 6 -13 12 -29z m-168 -95 c4 -17 7 -50 8 -74 1 -39 -1 -42 -15 -30 -20 16
-74 95 -74 107 0 12 41 31 60 29 8 -1 18 -16 21 -32z m347 -129 c13 -26 21
-53 19 -60 -3 -7 -24 -27 -46 -45 l-41 -33 0 52 c0 64 19 142 33 137 6 -2 22
-25 35 -51z m-128 -146 c0 -24 -8 -35 -41 -56 -22 -14 -42 -24 -44 -22 -1 2
-6 17 -9 33 -6 28 -3 32 36 52 56 28 58 28 58 -7z m145 -37 c-85 -204 -277
-363 -558 -462 -338 -119 -789 -112 -1192 20 -68 21 -129 37 -137 34 -8 -3
-25 -23 -37 -45 -29 -52 -110 -124 -176 -155 -30 -14 -59 -25 -65 -25 -7 0 13
27 43 60 90 96 135 216 124 330 -3 31 -12 71 -22 89 -9 18 -13 32 -8 30 4 -3
44 -23 88 -45 340 -174 795 -212 1265 -108 203 46 479 165 611 265 35 26 67
48 72 48 4 1 0 -16 -8 -36z m-516 -30 c22 -48 41 -117 33 -124 -12 -11 -105
-39 -110 -34 -7 6 16 111 34 153 16 39 27 40 43 5z m224 -19 c4 -23 -1 -29
-47 -50 -28 -13 -56 -24 -62 -24 -11 0 -24 22 -24 41 0 10 112 69 121 63 4 -2
9 -15 12 -30z"/>
</g>
</svg>
